# xmcd
#
# Track frame offsets: 
#        150
#        11313
#        25845
#        38978
#        48653
#        59448
#        70200
#        79748
#        89708
#        101185
#        114120
#        125453
#        134540
#        145718
#        155120
#        164410
#        172325
#        180148
#        185775
#        199368
#
# Disc length: 2822 seconds
#
# Revision: 0
# Processed by: cddbd v1.4PL0 Copyright (c) Steve Scherf et al.
# Submitted via: ExactAudioCopy v0.90b3
#
DISCID=240b0414
DTITLE=Patsy Cline and George Jones - Allegiance Extra
DYEAR=1900
DGENRE=Country
TTITLE0=Stop, Look and Listen - Don't Ever Leave Me
TTITLE1=Stop, Look and Listen - Then You'll Know
TTITLE2=Stop, Look and Listen - If I Could See The World
TTITLE3=Stop, Look and Listen - I'm Moving Along
TTITLE4=Stop, Look and Listen - Gotta Lot Of Rhythm
TTITLE5=Stop, Look and Listen - Stop, Look and Listen
TTITLE6=Stop, Look and Listen - Love Me, Love Me, Honey Do
TTITLE7=Stop, Look and Listen - I'm Blue Again
TTITLE8=Stop, Look and Listen - Dear God
TTITLE9=Stop, Look and Listen - Yes, I Understand
TTITLE10=Cold, Cold Heart - You Comb Her Hair 
TTITLE11=Cold, Cold Heart - Jonesy
TTITLE12=Cold, Cold Heart - Once A Day
TTITLE13=Cold, Cold Heart - The World's Worst Loser
TTITLE14=Cold, Cold Heart - Old Brush Arbors
TTITLE15=Cold, Cold Heart - Yes, I Know Why
TTITLE16=Cold, Cold Heart - Jambalaya
TTITLE17=Cold, Cold Heart - Liberty
TTITLE18=Cold, Cold Heart - Cold, Cold Heart
TTITLE19=Cold, Cold Heart - I Just Don't Like This Kind Of Livin'
EXTD=
EXTT0=
EXTT1=
EXTT2=
EXTT3=
EXTT4=
EXTT5=
EXTT6=
EXTT7=
EXTT8=
EXTT9=
EXTT10=
EXTT11=
EXTT12=
EXTT13=
EXTT14=
EXTT15=
EXTT16=
EXTT17=
EXTT18=
EXTT19=
PLAYORDER=
